<?xml version="1.0" encoding="utf-8"?>
<!-- Generator: Adobe Illustrator 20.1.0, SVG Export Plug-In . SVG Version: 6.00 Build 0)  -->
<svg version="1.1" id="icon" xmlns="http://www.w3.org/2000/svg" xmlns:xlink="http://www.w3.org/1999/xlink" x="0px" y="0px"
	 viewBox="0 0 18 18" style="enable-background:new 0 0 18 18;" xml:space="preserve">
<style type="text/css">
	.st0{fill:#323234;}
	.st1{opacity:5.000000e-02;fill:#FFFFFF;}
	.st2{opacity:0.25;}
	.st3{fill:none;}
	.st4{opacity:0.15;}
	.st5{fill:#6E6E6E;}
</style>
<g>
	<rect class="st0" width="18" height="18"/>
	<polygon class="st1" points="17,1 2,1 1,1 1,2 1,17 2,17 2,2 17,2 	"/>
	<g class="st2">
		<path d="M17,1v16H1V1H17 M18,0H0v18h18V0L18,0z"/>
	</g>
</g>
<rect class="st3" width="18" height="18"/>
<path class="st4" d="M12.2,3.2l-1,1C10.4,3.5,9.2,3,8,3C5.2,3,3,5.2,3,8s2.2,5,5,5c1.8,0,3.4-1,4.3-2.5l-2.2-0.4
	C9.5,10.7,8.8,11,8,11c-1.7,0-3-1.3-3-3c0-1.7,1.3-3,3-3c0.7,0,1.3,0.2,1.8,0.6L8.2,7.2C7.9,7.5,8.1,8,8.5,8h4C12.8,8,13,7.8,13,7.6
	v-4C13,3.1,12.5,2.9,12.2,3.2z"/>
<path class="st5" d="M13.2,4.2l-1,1C11.4,4.5,10.2,4,9,4C6.2,4,4,6.2,4,9s2.2,5,5,5c1.8,0,3.4-1,4.3-2.5l-2.2-0.4
	C10.5,11.7,9.8,12,9,12c-1.7,0-3-1.3-3-3c0-1.7,1.3-3,3-3c0.7,0,1.3,0.2,1.8,0.6L9.2,8.2C8.9,8.5,9.1,9,9.5,9h4
	C13.8,9,14,8.8,14,8.6v-4C14,4.1,13.5,3.9,13.2,4.2z"/>
</svg>
