<?xml version="1.0" encoding="utf-8"?>
<!-- Generator: Adobe Illustrator 20.1.0, SVG Export Plug-In . SVG Version: 6.00 Build 0)  -->
<svg version="1.1" id="icon" xmlns="http://www.w3.org/2000/svg" xmlns:xlink="http://www.w3.org/1999/xlink" x="0px" y="0px"
	 viewBox="0 0 18 18" style="enable-background:new 0 0 18 18;" xml:space="preserve">
<style type="text/css">
	.st0{fill:#323234;}
	.st1{opacity:5.000000e-02;fill:#FFFFFF;enable-background:new    ;}
	.st2{opacity:0.25;}
	.st3{fill:none;}
	.st4{opacity:0.15;enable-background:new    ;}
	.st5{fill:#969696;}
</style>
<g>
	<rect y="0" class="st0" width="18" height="18"/>
	<polygon class="st1" points="17,1 2,1 1,1 1,2 1,17 2,17 2,2 17,2 	"/>
	<g class="st2">
		<path d="M17,1v16H1V1H17 M18,0H0v18h18V0L18,0z"/>
	</g>
</g>
<rect y="0" class="st3" width="18" height="18"/>
<path class="st4" d="M14,6.6l-0.8,5.7c0,0.3-0.1,0.6-0.7,0.6h-9c-0.6,0-0.6-0.3-0.7-0.6L2,6.6C2,6.3,2,6,2.6,6h10.9
	C14,6,14,6.3,14,6.6z M12.9,4.6c-0.1-0.2-0.4-0.4-0.7-0.4h-4c-0.3,0-0.8-0.2-1-0.4L6.8,3.4C6.5,3.2,6.1,3,5.8,3h-2
	C3.5,3,3.2,3.2,3.2,3.6L3,5h10L12.9,4.6z"/>
<path class="st5" d="M15,7.6l-0.8,5.7c0,0.3-0.1,0.6-0.7,0.6h-9c-0.6,0-0.6-0.3-0.7-0.6L3,7.6C3,7.3,3,7,3.6,7h10.9
	C15,7,15,7.3,15,7.6z M13.9,5.6c-0.1-0.2-0.4-0.4-0.7-0.4h-4c-0.3,0-0.8-0.2-1-0.4L7.8,4.4C7.5,4.2,7.1,4,6.8,4h-2
	C4.5,4,4.2,4.2,4.2,4.6L4,6h10L13.9,5.6z"/>
</svg>
